# xmcd
#
# Track frame offsets: 
#        150
#        10274
#        23920
#        34275
#        51981
#        68722
#        85149
#        105542
#        120239
#        138713
#        154684
#        174571
#        193254
#        215111
#        239730
#        256133
#        272923
#        286920
#
# Disc length: 4087 seconds
#
# Revision: 0
# Processed by: cddbd v1.5.2PL0 Copyright (c) Steve Scherf et al.
# Submitted via: ExactAudioCopy v0.99pb3
#
DISCID=0b0ff512
DTITLE=Various Artist - the best of Christmas CD 2
DYEAR=2008
DGENRE=Pop
TTITLE0=Amy Winehouse - I saw mummy kissing Santa Claus
TTITLE1=The Pussycat Dolls - Santa baby
TTITLE2=John Legend - What a wonderful world
TTITLE3=Do - Everyday is Christmas
TTITLE4=Sinead O'Conner - Silent night
TTITLE5=Oleta Adams - Let it snow
TTITLE6=Elton John - Step into Christmas
TTITLE7=Joss Stone - All I want for Christmas
TTITLE8=Ryan Adams - Christmas time
TTITLE9=Whitney Houston - Do you hear what I hear
TTITLE10=Bon Jovi - I wish every day could be like Christmas
TTITLE11=Doug Ashdown - Winter in America
TTITLE12=Kate Bush - December will be magic again
TTITLE13=BZN - Once upon a Christmas
TTITLE14=Micael Jackson - Litlle Christmas tree
TTITLE15=Slade - Merry Xmas everybody
TTITLE16=Acda en de Munnik - Dan leef ik toch nog een keer
TTITLE17=ABBA - Happy new year
EXTD=
EXTT0=
EXTT1=
EXTT2=
EXTT3=
EXTT4=
EXTT5=
EXTT6=
EXTT7=
EXTT8=
EXTT9=
EXTT10=
EXTT11=
EXTT12=
EXTT13=
EXTT14=
EXTT15=
EXTT16=
EXTT17=
PLAYORDER=
